<svg width="409" height="97" viewBox="0 0 409 97" fill="none" xmlns="http://www.w3.org/2000/svg">
<path d="M178.313 62.0206V30.8821H188.994V58.7339C188.994 65.6335 192.365 69.4155 198.522 69.4155C207.065 69.4155 211.832 62.0206 211.832 51.5021V30.8821H222.513V77.9584H211.832V70.7265C207.886 75.9042 202.135 78.9431 195.398 78.9431C184.965 78.9431 178.307 71.6328 178.307 62.0206H178.313Z" fill="white"/>
<path d="M229.902 64.9811C229.902 56.4382 236.312 51.176 249.538 49.1218L261.204 47.3154V46.4091C261.204 41.8054 257.833 39.3465 252.003 39.3465C245.677 39.3465 241.569 42.3008 240.252 47.8893L231.54 41.6423C235.237 33.8365 242.3 29.8914 252.407 29.8914C264.648 29.8914 271.469 35.643 271.469 45.9923V67.7663C271.469 71.79 271.879 75.2458 272.538 77.9524H261.941C261.53 76.3091 261.367 74.5027 261.204 71.6268C257.18 76.6353 252.25 78.9372 245.925 78.9372C236.397 78.9372 229.902 73.5179 229.902 64.969V64.9811ZM261.204 56.9276V56.0213L252.824 57.3384C244.034 58.734 240.747 60.7096 240.747 64.4857C240.747 67.9354 243.538 69.9896 248.057 69.9896C254.631 69.9896 261.204 65.7181 261.204 56.9276Z" fill="white"/>
<path d="M277.879 65.4704L287.407 61.0358C288.065 66.2135 293.406 69.9895 299.484 69.9895C304.251 69.9895 307.7 67.7722 307.7 64.8118C307.7 61.0358 301.949 59.9664 295.708 58.2385C288.313 56.269 280.259 53.3932 280.259 44.1918C280.259 35.5643 287.491 30.145 298.499 30.145C308.196 30.145 315.669 34.9119 317.886 41.896L307.948 46.3305C307.622 42.1376 303.84 39.0987 298.251 39.0987C294.228 39.0987 290.941 40.742 290.941 43.4547C290.941 47.1522 297.182 48.0584 303.677 49.8649C310.908 51.8344 318.467 54.8734 318.467 63.9962C318.467 73.119 310.824 78.9492 299.49 78.9492C288.156 78.9492 280.676 74.1038 277.885 65.4764L277.879 65.4704Z" fill="white"/>
<path d="M323.391 64.9811C323.391 56.4382 329.801 51.176 343.026 49.1218L354.692 47.3154V46.4091C354.692 41.8054 351.321 39.3465 345.491 39.3465C339.165 39.3465 335.057 42.3008 333.74 47.8893L325.028 41.6423C328.725 33.8365 335.788 29.8914 345.896 29.8914C358.136 29.8914 364.957 35.643 364.957 45.9923V67.7663C364.957 71.79 365.368 75.2458 366.026 77.9524H355.429C355.018 76.3091 354.855 74.5027 354.692 71.6268C350.669 76.6353 345.739 78.9372 339.413 78.9372C329.885 78.9372 323.391 73.5179 323.391 64.969V64.9811ZM354.692 56.9276V56.0213L346.313 57.3384C337.522 58.734 334.235 60.7096 334.235 64.4857C334.235 67.9354 337.027 69.9896 341.546 69.9896C348.119 69.9896 354.692 65.7181 354.692 56.9276Z" fill="white"/>
<path d="M386.157 77.9583H375.476V30.882H386.157V38.1138C389.281 33.0207 393.963 29.8972 399.304 29.8972C403.575 29.8972 407.357 31.8668 409.001 34.3318L404.234 43.37C403.001 41.479 400.536 40.0834 397.497 40.0834C391.498 40.0834 386.157 45.3396 386.157 59.1447V77.9583Z" fill="white"/>
<path d="M158.044 77.8374L177.461 77.9582L164.073 67.5666C168.417 62.3406 170.906 55.423 170.906 47.4783C170.9 29.8065 158.146 17.2279 140.879 17.0104V16.9983C140.801 16.9983 140.728 16.9983 140.65 16.9983C140.571 16.9983 140.499 16.9983 140.42 16.9983V17.0104C123.153 17.2279 110.399 29.8065 110.399 47.4783C110.399 65.15 122.676 77.7347 140.42 77.9461V77.9582C140.499 77.9582 140.571 77.9582 140.65 77.9582C140.728 77.9582 140.801 77.9582 140.879 77.9582V77.9461C146.323 77.8797 151.259 76.6532 155.476 74.4722L158.044 77.8374ZM140.656 67.4398C130.011 67.325 122.32 59.3077 122.32 47.4783C122.32 35.6488 130.017 27.6315 140.656 27.5167C151.301 27.6315 158.992 35.6488 158.992 47.4783C158.992 51.4234 157.017 57.8577 155.476 60.8L135.448 48.173L148.727 65.6031C146.329 66.7631 143.604 67.3975 140.65 67.4337L140.656 67.4398Z" fill="white"/>
<g clip-path="url(#clip0_529_11)">
<path d="M45.7538 47.0041L0 24.4405V75.0002C0 86.8407 9.59873 96.4394 21.4392 96.4394H71.9989L46.1108 47.3512C46.0315 47.2004 45.9065 47.0785 45.7538 47.0031V47.0041Z" fill="white"/>
<path d="M75.0001 0H24.4404L50.6805 49.2638C50.7598 49.4135 50.8848 49.5334 51.0365 49.6088L96.4403 71.9989V21.4392C96.4393 9.59873 86.8406 0 75.0001 0Z" fill="white"/>
</g>
<defs>
<clipPath id="clip0_529_11">
<rect width="96.4394" height="96.4394" fill="white"/>
</clipPath>
</defs>
</svg>
