<svg width="409" height="97" viewBox="0 0 409 97" fill="none" xmlns="http://www.w3.org/2000/svg">
<path d="M178.313 62.0205V30.8821H188.995V58.7339C188.995 65.6334 192.366 69.4155 198.522 69.4155C207.065 69.4155 211.832 62.0205 211.832 51.5021V30.8821H222.514V77.9583H211.832V70.7265C207.887 75.9042 202.135 78.9431 195.399 78.9431C184.965 78.9431 178.307 71.6327 178.307 62.0205H178.313Z" fill="black"/>
<path d="M229.902 64.9812C229.902 56.4384 236.312 51.1761 249.538 49.122L261.204 47.3155V46.4093C261.204 41.8056 257.833 39.3467 252.003 39.3467C245.677 39.3467 241.569 42.301 240.252 47.8895L231.54 41.6425C235.237 33.8367 242.3 29.8915 252.407 29.8915C264.648 29.8915 271.469 35.6431 271.469 45.9924V67.7664C271.469 71.7901 271.879 75.2459 272.538 77.9526H261.941C261.53 76.3092 261.367 74.5028 261.204 71.627C257.18 76.6355 252.25 78.9373 245.925 78.9373C236.397 78.9373 229.902 73.518 229.902 64.9691V64.9812ZM261.204 56.9277V56.0215L252.824 57.3386C244.034 58.7342 240.747 60.7098 240.747 64.4858C240.747 67.9356 243.538 69.9897 248.057 69.9897C254.631 69.9897 261.204 65.7183 261.204 56.9277Z" fill="black"/>
<path d="M277.878 65.4705L287.406 61.0359C288.065 66.2136 293.405 69.9896 299.483 69.9896C304.25 69.9896 307.7 67.7723 307.7 64.8119C307.7 61.0359 301.948 59.9665 295.707 58.2386C288.312 56.2691 280.259 53.3933 280.259 44.1919C280.259 35.5645 287.491 30.1451 298.498 30.1451C308.195 30.1451 315.669 34.912 317.886 41.8961L307.948 46.3306C307.621 42.1377 303.839 39.0988 298.251 39.0988C294.227 39.0988 290.94 40.7421 290.94 43.4548C290.94 47.1523 297.181 48.0585 303.676 49.865C310.908 51.8345 318.466 54.8735 318.466 63.9963C318.466 73.1191 310.823 78.9493 299.489 78.9493C288.155 78.9493 280.676 74.1039 277.884 65.4765L277.878 65.4705Z" fill="black"/>
<path d="M323.39 64.9812C323.39 56.4384 329.8 51.1761 343.025 49.122L354.692 47.3155V46.4093C354.692 41.8056 351.321 39.3467 345.49 39.3467C339.165 39.3467 335.056 42.301 333.739 47.8895L325.027 41.6425C328.725 33.8367 335.788 29.8915 345.895 29.8915C358.135 29.8915 364.956 35.6431 364.956 45.9924V67.7664C364.956 71.7901 365.367 75.2459 366.026 77.9526H355.429C355.018 76.3092 354.855 74.5028 354.692 71.627C350.668 76.6355 345.738 78.9373 339.412 78.9373C329.885 78.9373 323.39 73.518 323.39 64.9691V64.9812ZM354.692 56.9277V56.0215L346.312 57.3386C337.521 58.7342 334.235 60.7098 334.235 64.4858C334.235 67.9356 337.026 69.9897 341.545 69.9897C348.118 69.9897 354.692 65.7183 354.692 56.9277Z" fill="black"/>
<path d="M386.156 77.9584H375.475V30.8822H386.156V38.114C389.28 33.0209 393.962 29.8974 399.303 29.8974C403.574 29.8974 407.356 31.8669 409 34.3319L404.233 43.3702C403 41.4791 400.535 40.0835 397.496 40.0835C391.497 40.0835 386.156 45.3397 386.156 59.1448V77.9584Z" fill="black"/>
<path d="M158.044 77.8374L177.461 77.9582L164.073 67.5666C168.417 62.3407 170.906 55.423 170.906 47.4783C170.9 29.8066 158.146 17.2279 140.879 17.0104V16.9984C140.801 16.9984 140.728 16.9984 140.65 16.9984C140.571 16.9984 140.499 16.9984 140.42 16.9984V17.0104C123.153 17.2279 110.399 29.8066 110.399 47.4783C110.399 65.15 122.676 77.7347 140.42 77.9461V77.9582C140.499 77.9582 140.571 77.9582 140.65 77.9582C140.728 77.9582 140.801 77.9582 140.879 77.9582V77.9461C146.323 77.8797 151.259 76.6532 155.476 74.4722L158.044 77.8374ZM140.656 67.4398C130.01 67.325 122.32 59.3078 122.32 47.4783C122.32 35.6488 130.017 27.6316 140.656 27.5168C151.301 27.6316 158.992 35.6488 158.992 47.4783C158.992 51.4235 157.016 57.8578 155.476 60.8L135.448 48.1731L148.727 65.6031C146.329 66.7631 143.604 67.3975 140.65 67.4337L140.656 67.4398Z" fill="black"/>
<g clip-path="url(#clip0_2_87)">
<path d="M45.7538 47.0041L0 24.4405V75.0001C0 86.8406 9.59872 96.4393 21.4392 96.4393H71.9988L46.1107 47.3511C46.0314 47.2004 45.9065 47.0785 45.7538 47.0031V47.0041Z" fill="black"/>
<path d="M75 0H24.4404L50.6805 49.2637C50.7598 49.4134 50.8848 49.5334 51.0365 49.6088L96.4403 71.9988V21.4392C96.4393 9.59872 86.8405 0 75 0Z" fill="black"/>
</g>
<defs>
<clipPath id="clip0_2_87">
<rect width="96.4393" height="96.4393" fill="white"/>
</clipPath>
</defs>
</svg>
