<svg width="409" height="97" viewBox="0 0 409 97" fill="none" xmlns="http://www.w3.org/2000/svg">
<mask id="mask0_2_60" style="mask-type:alpha" maskUnits="userSpaceOnUse" x="0" y="0" width="97" height="97">
<path d="M75.0001 0H21.4392C9.59867 0 0 9.59867 0 21.4392V75.0001C0 86.8407 9.59867 96.4394 21.4392 96.4394H75.0001C86.8407 96.4394 96.4394 86.8407 96.4394 75.0001V21.4392C96.4394 9.59867 86.8407 0 75.0001 0Z" fill="white"/>
</mask>
<g mask="url(#mask0_2_60)">
<path d="M-0.0996094 10.4586C-0.0996094 4.62748 4.62745 -0.0995789 10.4586 -0.0995789H85.9145C91.7456 -0.0995789 96.4726 4.62748 96.4726 10.4586V85.9145C96.4726 91.7456 91.7456 96.4727 85.9145 96.4727H10.4586C4.62745 96.4727 -0.0996094 91.7456 -0.0996094 85.9145V10.4586Z" fill="white"/>
<path d="M0 0H96.5942V96.5942H0V0Z" fill="url(#paint0_diamond_2_60)"/>
</g>
<g clip-path="url(#clip0_2_60)">
<path d="M45.7538 47.0041L0 24.4405V75.0002C0 86.8407 9.59873 96.4394 21.4392 96.4394H71.9989L46.1108 47.3511C46.0315 47.2004 45.9065 47.0785 45.7538 47.0031V47.0041Z" fill="black"/>
<path d="M75.0001 0H24.4404L50.6805 49.2637C50.7598 49.4135 50.8848 49.5334 51.0365 49.6088L96.4403 71.9989V21.4392C96.4393 9.59873 86.8406 0 75.0001 0Z" fill="black"/>
</g>
<path d="M178.313 62.721V31.5825H188.994V59.4344C188.994 66.3339 192.365 70.1159 198.522 70.1159C207.065 70.1159 211.832 62.721 211.832 52.2026V31.5825H222.513V78.6588H211.832V71.427C207.886 76.6046 202.135 79.6436 195.398 79.6436C184.965 79.6436 178.307 72.3332 178.307 62.721H178.313Z" fill="white"/>
<path d="M229.902 65.6816C229.902 57.1387 236.312 51.8765 249.537 49.8223L261.203 48.0159V47.1096C261.203 42.5059 257.832 40.047 252.002 40.047C245.677 40.047 241.568 43.0013 240.251 48.5898L231.539 42.3428C235.237 34.537 242.299 30.5919 252.407 30.5919C264.647 30.5919 271.468 36.3435 271.468 46.6928V68.4667C271.468 72.4905 271.879 75.9463 272.538 78.6529H261.941C261.53 77.0096 261.367 75.2031 261.203 72.3273C257.18 77.3358 252.25 79.6377 245.924 79.6377C236.397 79.6377 229.902 74.2184 229.902 65.6695V65.6816ZM261.203 57.6281V56.7218L252.824 58.0389C244.033 59.4345 240.747 61.4101 240.747 65.1861C240.747 68.6359 243.538 70.6901 248.057 70.6901C254.63 70.6901 261.203 66.4186 261.203 57.6281Z" fill="white"/>
<path d="M277.879 66.1709L287.407 61.7364C288.065 66.9141 293.406 70.6901 299.484 70.6901C304.251 70.6901 307.7 68.4728 307.7 65.5124C307.7 61.7364 301.949 60.667 295.708 58.9391C288.313 56.9696 280.259 54.0938 280.259 44.8924C280.259 36.2649 287.491 30.8456 298.499 30.8456C308.196 30.8456 315.669 35.6124 317.886 42.5966L307.948 47.0311C307.622 42.8382 303.84 39.7993 298.251 39.7993C294.228 39.7993 290.941 41.4426 290.941 44.1553C290.941 47.8528 297.182 48.759 303.677 50.5654C310.908 52.535 318.466 55.5739 318.466 64.6968C318.466 73.8196 310.824 79.6498 299.49 79.6498C288.156 79.6498 280.676 74.8044 277.885 66.177L277.879 66.1709Z" fill="white"/>
<path d="M323.39 65.6816C323.39 57.1387 329.8 51.8765 343.025 49.8223L354.692 48.0159V47.1096C354.692 42.5059 351.321 40.047 345.49 40.047C339.165 40.047 335.057 43.0013 333.739 48.5898L325.027 42.3428C328.725 34.537 335.788 30.5919 345.895 30.5919C358.135 30.5919 364.956 36.3435 364.956 46.6928V68.4667C364.956 72.4905 365.367 75.9463 366.026 78.6529H355.429C355.018 77.0096 354.855 75.2031 354.692 72.3273C350.668 77.3358 345.738 79.6377 339.412 79.6377C329.885 79.6377 323.39 74.2184 323.39 65.6695V65.6816ZM354.692 57.6281V56.7218L346.312 58.0389C337.521 59.4345 334.235 61.4101 334.235 65.1861C334.235 68.6359 337.026 70.6901 341.545 70.6901C348.118 70.6901 354.692 66.4186 354.692 57.6281Z" fill="white"/>
<path d="M386.157 78.6588H375.475V31.5825H386.157V38.8143C389.28 33.7212 393.962 30.5977 399.303 30.5977C403.575 30.5977 407.357 32.5673 409 35.0323L404.233 44.0705C403.001 42.1795 400.536 40.7839 397.497 40.7839C391.497 40.7839 386.157 46.0401 386.157 59.8452V78.6588Z" fill="white"/>
<path d="M158.044 78.538L177.461 78.6589L164.073 68.2673C168.417 63.0413 170.906 56.1236 170.906 48.1789C170.9 30.5072 158.146 17.9285 140.879 17.711V17.6989C140.801 17.6989 140.728 17.6989 140.65 17.6989C140.571 17.6989 140.499 17.6989 140.42 17.6989V17.711C123.153 17.9285 110.399 30.5072 110.399 48.1789C110.399 65.8506 122.676 78.4353 140.42 78.6468V78.6589C140.499 78.6589 140.571 78.6589 140.65 78.6589C140.728 78.6589 140.801 78.6589 140.879 78.6589V78.6468C146.323 78.5803 151.259 77.3539 155.476 75.1728L158.044 78.538ZM140.656 68.1404C130.01 68.0256 122.32 60.0084 122.32 48.1789C122.32 36.3494 130.017 28.3322 140.656 28.2174C151.301 28.3322 158.992 36.3494 158.992 48.1789C158.992 52.1241 157.017 58.5584 155.476 61.5007L135.448 48.8737L148.727 66.3037C146.329 67.4637 143.604 68.0981 140.65 68.1344L140.656 68.1404Z" fill="white"/>
<defs>
<radialGradient id="paint0_diamond_2_60" cx="0" cy="0" r="1" gradientUnits="userSpaceOnUse" gradientTransform="translate(48.2971 48.2971) rotate(-135) scale(81.9629 61.8132)">
<stop offset="0.140625" stop-color="#FFFBD8"/>
<stop offset="0.307292" stop-color="#5FECDB" stop-opacity="0.64"/>
<stop offset="0.520833" stop-color="#4FBAF7"/>
<stop offset="0.791667" stop-color="#A745F4"/>
</radialGradient>
<clipPath id="clip0_2_60">
<rect width="96.4394" height="96.4394" fill="white"/>
</clipPath>
</defs>
</svg>
