<svg width="635" height="150" viewBox="0 0 635 150" fill="none" xmlns="http://www.w3.org/2000/svg">
<mask id="mask0_2_10" style="mask-type:alpha" maskUnits="userSpaceOnUse" x="0" y="0" width="150" height="150">
<path d="M116.443 0H33.2859C14.9026 0 0 14.9026 0 33.2859V116.443C0 134.826 14.9026 149.729 33.2859 149.729H116.443C134.826 149.729 149.729 134.826 149.729 116.443V33.2859C149.729 14.9026 134.826 0 116.443 0Z" fill="white"/>
</mask>
<g mask="url(#mask0_2_10)">
<path d="M-0.15419 10.4042C-0.15419 4.57306 4.57287 -0.153992 10.404 -0.153992H139.223C145.054 -0.153992 149.781 4.57306 149.781 10.4042V139.223C149.781 145.054 145.054 149.781 139.223 149.781H10.404C4.57287 149.781 -0.15419 145.054 -0.15419 139.223V10.4042Z" fill="white"/>
<path d="M0 0H149.969V149.969H0V0Z" fill="url(#paint0_diamond_2_10)"/>
</g>
<g clip-path="url(#clip0_2_10)">
<path d="M71.0359 72.9771L0 37.9456V116.443C0 134.826 14.9027 149.729 33.2859 149.729H111.783L71.5901 73.5159C71.4669 73.2819 71.273 73.0925 71.0359 72.9755V72.9771Z" fill="black"/>
<path d="M116.443 0H37.9456L78.6851 76.4853C78.8082 76.7178 79.0022 76.904 79.2377 77.021L149.73 111.783V33.2859C149.729 14.9027 134.826 0 116.443 0Z" fill="black"/>
</g>
<path d="M276.842 97.3792V49.0346H293.426V92.2765C293.426 102.988 298.66 108.86 308.218 108.86C321.481 108.86 328.882 97.3792 328.882 81.0486V49.0346H345.466V122.124H328.882V110.896C322.757 118.935 313.827 123.653 303.368 123.653C287.169 123.653 276.832 112.303 276.832 97.3792H276.842Z" fill="black"/>
<path d="M356.938 101.976C356.938 88.7123 366.89 80.5423 387.423 77.3531L405.536 74.5485V73.1415C405.536 65.9939 400.302 62.1763 391.25 62.1763C381.429 62.1763 375.051 66.7631 373.006 75.4396L359.48 65.7407C365.22 53.6217 376.186 47.4965 391.878 47.4965C410.882 47.4965 421.472 56.4263 421.472 72.4943V106.3C421.472 112.547 422.11 117.912 423.133 122.115H406.68C406.042 119.563 405.789 116.759 405.536 112.294C399.289 120.07 391.635 123.644 381.814 123.644C367.021 123.644 356.938 115.23 356.938 101.957V101.976ZM405.536 89.4721V88.0651L392.526 90.1099C378.878 92.2767 373.775 95.344 373.775 101.207C373.775 106.562 378.109 109.752 385.125 109.752C395.33 109.752 405.536 103.12 405.536 89.4721Z" fill="black"/>
<path d="M431.425 102.735L446.217 95.8504C447.24 103.889 455.531 109.752 464.968 109.752C472.369 109.752 477.725 106.309 477.725 101.713C477.725 95.8504 468.795 94.1902 459.105 91.5075C447.624 88.4496 435.121 83.9847 435.121 69.699C435.121 56.3043 446.348 47.8904 463.439 47.8904C478.494 47.8904 490.097 55.2912 493.539 66.1345L478.109 73.0195C477.603 66.5097 471.731 61.7916 463.054 61.7916C456.807 61.7916 451.704 64.343 451.704 68.5546C451.704 74.2952 461.394 75.7022 471.478 78.5068C482.705 81.5647 494.44 86.2828 494.44 100.447C494.44 114.61 482.574 123.662 464.977 123.662C447.38 123.662 435.768 116.139 431.434 102.745L431.425 102.735Z" fill="black"/>
<path d="M502.085 101.976C502.085 88.7123 512.037 80.5423 532.57 77.3531L550.682 74.5485V73.1415C550.682 65.9939 545.448 62.1763 536.397 62.1763C526.576 62.1763 520.197 66.7631 518.153 75.4396L504.627 65.7407C510.367 53.6217 521.332 47.4965 537.025 47.4965C556.029 47.4965 566.619 56.4263 566.619 72.4943V106.3C566.619 112.547 567.257 117.912 568.279 122.115H551.827C551.189 119.563 550.936 116.759 550.682 112.294C544.435 120.07 536.781 123.644 526.96 123.644C512.168 123.644 502.085 115.23 502.085 101.957V101.976ZM550.682 89.4721V88.0651L537.672 90.1099C524.024 92.2767 518.922 95.344 518.922 101.207C518.922 106.562 523.255 109.752 530.272 109.752C540.477 109.752 550.682 103.12 550.682 89.4721Z" fill="black"/>
<path d="M599.534 122.124H582.95V49.0347H599.534V60.2626C604.383 52.3553 611.653 47.5058 619.944 47.5058C626.576 47.5058 632.448 50.5637 634.999 54.3907L627.599 68.4232C625.685 65.4873 621.858 63.3205 617.14 63.3205C607.825 63.3205 599.534 71.4811 599.534 92.9145V122.124Z" fill="black"/>
<path d="M245.372 121.936L275.52 122.124L254.733 105.99C261.478 97.8762 265.342 87.1361 265.342 74.8014C265.333 47.3648 245.532 27.8356 218.724 27.4979V27.4792C218.602 27.4792 218.489 27.4792 218.367 27.4792C218.245 27.4792 218.133 27.4792 218.011 27.4792V27.4979C191.203 27.8356 171.401 47.3648 171.401 74.8014C171.401 102.238 190.462 121.777 218.011 122.105V122.124C218.133 122.124 218.245 122.124 218.367 122.124C218.489 122.124 218.602 122.124 218.724 122.124V122.105C227.175 122.002 234.838 120.097 241.386 116.711L245.372 121.936ZM218.377 105.793C201.849 105.615 189.908 93.1675 189.908 74.8014C189.908 56.4353 201.858 43.988 218.377 43.8098C234.904 43.988 246.845 56.4353 246.845 74.8014C246.845 80.9265 243.778 90.9163 241.386 95.4843L210.291 75.8801L230.908 102.941C227.184 104.742 222.954 105.727 218.367 105.784L218.377 105.793Z" fill="black"/>
<defs>
<radialGradient id="paint0_diamond_2_10" cx="0" cy="0" r="1" gradientUnits="userSpaceOnUse" gradientTransform="translate(74.9845 74.9845) rotate(-135) scale(127.253 95.9692)">
<stop offset="0.140625" stop-color="#FFFBD8"/>
<stop offset="0.307292" stop-color="#5FECDB" stop-opacity="0.64"/>
<stop offset="0.520833" stop-color="#4FBAF7"/>
<stop offset="0.791667" stop-color="#A745F4"/>
</radialGradient>
<clipPath id="clip0_2_10">
<rect width="149.729" height="149.729" fill="white"/>
</clipPath>
</defs>
</svg>
